# xmcd
#
# Track frame offsets:
#	150
#	13437
#	29844
#	46527
#	63352
#	75455
#	95930
#	107962
#	121655
#	138125
#	150555
#	169097
#
# Disc length: 2412
#
# Revision: 3
# Processed by: cddbd v1.5.1PL0 Copyright (c) Steve Scherf et al.
# Submitted via: CDValet v3.31 - Copyright (c) 1997 Greg Leichner
# Normalized: r1:TSWAP
#
DISCID=98096a0c
DTITLE=Various Artist - Class of Country 1980-1984
DYEAR=1900
DGENRE=
TTITLE0=Conway Twitty - Slow Hand
TTITLE1=Alabama - Feels So Right
TTITLE2=The Oak Ridge Boys - Elvira
TTITLE3=Emmylou Harris - Beneath Still Waters
TTITLE4=Ronnie Milsap - My Heart
TTITLE5=Merle Haggard - I Think I'll Just Stay Here And Drink
TTITLE6=John Schneider - I've Been Around Long Enough To Know
TTITLE7=Charlie Pride - Never Been So Loved (In All My Life)
TTITLE8=John Conlee - In My Eyes
TTITLE9=Johnnie Lee - One In A Million
TTITLE10=Don Williams - I Believe In You
TTITLE11=Gene Watson - Fourteen Carat Mind
EXTD=
EXTT0=
EXTT1=
EXTT2=
EXTT3=
EXTT4=
EXTT5=
EXTT6=
EXTT7=
EXTT8=
EXTT9=
EXTT10=
EXTT11=
PLAYORDER=
